<?xml version="1.0" encoding="UTF-8" standalone="no"?>
<svg
   xmlns:dc="http://purl.org/dc/elements/1.1/"
   xmlns:cc="http://creativecommons.org/ns#"
   xmlns:rdf="http://www.w3.org/1999/02/22-rdf-syntax-ns#"
   xmlns:svg="http://www.w3.org/2000/svg"
   xmlns="http://www.w3.org/2000/svg"
   id="svg8"
   version="1.1"
   viewBox="0 0 135.46666 135.46667"
   height="512"
   width="512">
  <defs
     id="defs2" />
  <metadata
     id="metadata5">
    <rdf:RDF>
      <cc:Work
         rdf:about="">
        <dc:format>image/svg+xml</dc:format>
        <dc:type
           rdf:resource="http://purl.org/dc/dcmitype/StillImage" />
        <dc:title></dc:title>
      </cc:Work>
    </rdf:RDF>
  </metadata>
  <g
     transform="translate(0,-161.53332)"
     id="layer1">
    <rect
       style="fill:none;stroke:#663399;stroke-width:7.83164215;stroke-miterlimit:4;stroke-dasharray:none;stroke-opacity:1"
       y="165.71373"
       x="4.1803961"
       height="127.10586"
       width="127.10587"
       id="rect10" />
    <g
       id="text819"
       style="font-style:normal;font-variant:normal;font-weight:900;font-stretch:normal;font-size:50.79999924px;line-height:1.25;font-family:'Noto Sans Display';-inkscape-font-specification:'Noto Sans Display Heavy';letter-spacing:0px;word-spacing:0px;fill:#663399;fill-opacity:1;stroke:none;stroke-width:0.26458332"
       aria-label="Pt">
      <path
         id="path821"
         style="font-style:normal;font-variant:normal;font-weight:bold;font-stretch:normal;font-size:50.79999924px;font-family:Roboto;-inkscape-font-specification:'Roboto Bold';fill:#663399;fill-opacity:1;stroke-width:0.26458332"
         d="m 52.131183,234.35161 v 12.72481 H 44.689777 V 210.96079 H 58.77884 q 4.067968,0 7.14375,1.48828 3.100585,1.48828 4.762499,4.2416 1.661914,2.72852 1.661914,6.22598 0,5.3082 -3.646289,8.38399 -3.621484,3.05097 -10.045898,3.05097 z m 0,-6.02754 h 6.647657 q 2.951757,0 4.489648,-1.38906 1.562695,-1.38906 1.562695,-3.96875 0,-2.6541 -1.562695,-4.29121 -1.562695,-1.63711 -4.316016,-1.68672 h -6.821289 z" />
      <path
         id="path823"
         style="font-style:normal;font-variant:normal;font-weight:bold;font-stretch:normal;font-size:50.79999924px;font-family:Roboto;-inkscape-font-specification:'Roboto Bold';fill:#663399;fill-opacity:1;stroke-width:0.26458332"
         d="m 85.915168,213.6397 v 6.59804 h 4.588867 v 5.2586 h -4.588867 v 13.39453 q 0,1.48828 0.570508,2.1332 0.570507,0.64492 2.182812,0.64492 1.190625,0 2.108399,-0.17363 v 5.43223 q -2.108399,0.64492 -4.340821,0.64492 -7.540625,0 -7.689453,-7.61504 v -14.46113 h -3.91914 v -5.2586 h 3.91914 v -6.59804 z" />
    </g>
  </g>
</svg>
